<?xml version="1.0" encoding="UTF-8"?>
<svg xmlns="http://www.w3.org/2000/svg" xmlns:xlink="http://www.w3.org/1999/xlink" viewBox="0 0 48 48" width="48px" height="48px">
<g id="surface6997387">
<path style=" stroke:none;fill-rule:nonzero;fill:rgb(100%,100%,100%);fill-opacity:1;" d="M 11 4 C 7.132812 4 4 7.132812 4 11 C 4 14.867188 7.132812 18 11 18 C 14.867188 18 18 14.867188 18 11 C 18 7.132812 14.867188 4 11 4 Z M 44 6 L 33.398438 7.601562 L 36.484375 10.6875 L 30.355469 16.816406 L 27.136719 13.800781 L 18.984375 22.15625 L 16.015625 19.1875 L 6.605469 28.40625 L 9.40625 31.261719 L 15.984375 24.8125 L 19.015625 27.84375 L 27.261719 19.398438 L 30.445312 22.382812 L 39.3125 13.515625 L 42.398438 16.601562 Z M 11.796875 7 L 12.308594 7 L 12.308594 15 L 9.589844 15 L 9.589844 10.015625 L 8 10.628906 L 8 8.554688 Z M 38 22 L 38 44 L 42 44 L 42 22 Z M 30 26 L 30 44 L 34 44 L 34 26 Z M 22 30 L 22 44 L 26 44 L 26 30 Z M 14 34 L 14 44 L 18 44 L 18 34 Z M 6 38 L 6 44 L 10 44 L 10 38 Z M 6 38 "/>
</g>
</svg>
