<?xml version="1.0" encoding="UTF-8"?>
<svg xmlns="http://www.w3.org/2000/svg" xmlns:xlink="http://www.w3.org/1999/xlink" viewBox="0 0 48 48" width="48px" height="48px">
<g id="surface6995429">
<path style=" stroke:none;fill-rule:nonzero;fill:rgb(100%,100%,100%);fill-opacity:1;" d="M 10 6 C 8.953125 6 7.882812 6.367188 7.125 7.125 C 6.367188 7.882812 6 8.953125 6 10 L 6 38 C 6 39.046875 6.367188 40.117188 7.125 40.875 C 7.882812 41.632812 8.953125 42 10 42 L 38 42 C 39.046875 42 40.117188 41.632812 40.875 40.875 C 41.632812 40.117188 42 39.046875 42 38 L 42 10 C 42 8.953125 41.632812 7.882812 40.875 7.125 C 40.117188 6.367188 39.046875 6 38 6 Z M 10 10 L 38 10 L 38 38 L 10 38 Z M 22 14 L 22 16 L 21.625 16 L 21.625 18 L 22 18 L 22 20.5 L 19.875 19.25 L 20.0625 18.9375 L 18.375 17.875 L 18.125 18.25 L 16.375 17.25 L 14.375 20.75 L 16 21.6875 L 15.75 22.0625 L 17.4375 23.125 L 17.6875 22.6875 L 20 24 L 17.6875 25.3125 L 17.4375 24.875 L 15.75 25.9375 L 16 26.3125 L 14.375 27.25 L 16.375 30.75 L 18.125 29.75 L 18.375 30.125 L 20.0625 29.0625 L 19.875 28.75 L 22 27.5 L 22 30 L 21.625 30 L 21.625 32 L 22 32 L 22 34 L 26 34 L 26 32 L 26.375 32 L 26.375 30 L 26 30 L 26 27.5 L 28.125 28.75 L 27.9375 29.0625 L 29.625 30.125 L 29.875 29.75 L 31.625 30.75 L 33.625 27.25 L 32 26.3125 L 32.25 25.9375 L 30.5625 24.875 L 30.3125 25.3125 L 28 24 L 30.3125 22.6875 L 30.5625 23.125 L 32.25 22.0625 L 32 21.6875 L 33.625 20.75 L 31.625 17.25 L 29.875 18.25 L 29.625 17.875 L 27.9375 18.9375 L 28.125 19.25 L 26 20.5 L 26 18 L 26.375 18 L 26.375 16 L 26 16 L 26 14 Z M 22 14 "/>
</g>
</svg>
