<svg width="170" height="36" viewBox="0 0 170 36" fill="none" xmlns="http://www.w3.org/2000/svg">
<path d="M132.384 25.2452C131.804 25.2452 131.365 25.0964 131.067 24.7987C130.785 24.5011 130.643 24.0844 130.643 23.5487V15.6021H127.161V14.3967H130.643V10.3341H131.983V14.3967H135.777V15.6021H131.983V23.3701C131.983 23.8166 132.206 24.0398 132.652 24.0398H135.197V25.2452H132.384Z" fill="#1AD0B2"/>
<path d="M138.767 25.2452V14.3967H140.061V15.7583H140.329C140.538 15.2672 140.843 14.9101 141.244 14.6869C141.661 14.4636 142.234 14.352 142.963 14.352H144.236V15.6021H142.807C141.988 15.6021 141.334 15.8327 140.843 16.2941C140.351 16.7554 140.106 17.4771 140.106 18.4593V25.2452H138.767Z" fill="#1AD0B2"/>
<path d="M151.614 25.5577C150.498 25.5577 149.524 25.327 148.69 24.8657C147.872 24.3895 147.232 23.7273 146.77 22.879C146.309 22.0308 146.078 21.0561 146.078 19.9549V19.687C146.078 18.5709 146.309 17.5962 146.77 16.7628C147.232 15.9146 147.864 15.2598 148.668 14.7985C149.486 14.3223 150.416 14.0842 151.458 14.0842C152.47 14.0842 153.363 14.3 154.137 14.7315C154.925 15.1482 155.543 15.7583 155.989 16.5619C156.436 17.3506 156.659 18.2956 156.659 19.3968V20.1111H147.418C147.462 21.4653 147.872 22.5145 148.646 23.2585C149.434 23.9877 150.424 24.3523 151.614 24.3523C152.626 24.3523 153.408 24.1216 153.958 23.6603C154.524 23.199 154.955 22.6335 155.253 21.9638L156.458 22.4996C156.235 22.9907 155.922 23.4743 155.521 23.9505C155.134 24.4118 154.628 24.7987 154.003 25.1113C153.378 25.4089 152.582 25.5577 151.614 25.5577ZM147.44 18.9504H155.297C155.238 17.7747 154.858 16.8744 154.159 16.2494C153.46 15.6095 152.559 15.2896 151.458 15.2896C150.372 15.2896 149.471 15.6095 148.757 16.2494C148.043 16.8744 147.604 17.7747 147.44 18.9504Z" fill="#1AD0B2"/>
<path d="M164.955 25.5577C163.839 25.5577 162.864 25.327 162.031 24.8657C161.213 24.3895 160.573 23.7273 160.111 22.879C159.65 22.0308 159.419 21.0561 159.419 19.9549V19.687C159.419 18.5709 159.65 17.5962 160.111 16.7628C160.573 15.9146 161.205 15.2598 162.009 14.7985C162.827 14.3223 163.757 14.0842 164.799 14.0842C165.811 14.0842 166.704 14.3 167.478 14.7315C168.266 15.1482 168.884 15.7583 169.33 16.5619C169.777 17.3506 170 18.2956 170 19.3968V20.1111H160.759C160.803 21.4653 161.213 22.5145 161.986 23.2585C162.775 23.9877 163.765 24.3523 164.955 24.3523C165.967 24.3523 166.748 24.1216 167.299 23.6603C167.865 23.199 168.296 22.6335 168.594 21.9638L169.799 22.4996C169.576 22.9907 169.263 23.4743 168.862 23.9505C168.475 24.4118 167.969 24.7987 167.344 25.1113C166.719 25.4089 165.923 25.5577 164.955 25.5577ZM160.781 18.9504H168.638C168.579 17.7747 168.199 16.8744 167.5 16.2494C166.801 15.6095 165.9 15.2896 164.799 15.2896C163.713 15.2896 162.812 15.6095 162.098 16.2494C161.384 16.8744 160.945 17.7747 160.781 18.9504Z" fill="#1AD0B2"/>
<path d="M42.8848 32.3669V7.58313H47.3003V9.71967H47.9413C48.3448 9.03123 48.9739 8.42588 49.8285 7.90361C50.6832 7.35761 51.9057 7.08461 53.4963 7.08461C54.9206 7.08461 56.2381 7.4407 57.4488 8.15287C58.6596 8.84131 59.6329 9.8621 60.3688 11.2152C61.1047 12.5684 61.4727 14.2064 61.4727 16.1293V16.699C61.4727 18.6219 61.1047 20.2599 60.3688 21.613C59.6329 22.9662 58.6596 23.9988 57.4488 24.711C56.2381 25.3995 54.9206 25.7437 53.4963 25.7437C52.428 25.7437 51.5259 25.6131 50.79 25.352C50.0778 25.1146 49.4962 24.806 49.0451 24.4262C48.6178 24.0226 48.2736 23.619 48.0125 23.2155H47.3715V32.3669H42.8848ZM52.1431 21.8267C53.5437 21.8267 54.6951 21.3875 55.5972 20.5092C56.523 19.6071 56.9859 18.3014 56.9859 16.5922V16.2361C56.9859 14.5269 56.523 13.2331 55.5972 12.3547C54.6714 11.4526 53.52 11.0016 52.1431 11.0016C50.7662 11.0016 49.6149 11.4526 48.6891 12.3547C47.7632 13.2331 47.3003 14.5269 47.3003 16.2361V16.5922C47.3003 18.3014 47.7632 19.6071 48.6891 20.5092C49.6149 21.3875 50.7662 21.8267 52.1431 21.8267Z" fill="#F9F9F9"/>
<path d="M71.0762 25.7437C69.818 25.7437 68.6904 25.53 67.6934 25.1027C66.6963 24.6517 65.9011 24.0107 65.3076 23.1798C64.7378 22.3252 64.453 21.2926 64.453 20.0819C64.453 18.8712 64.7378 17.8622 65.3076 17.0551C65.9011 16.2242 66.7082 15.607 67.729 15.2034C68.7735 14.7761 69.9605 14.5625 71.2899 14.5625H76.1327V13.5654C76.1327 12.7346 75.8716 12.058 75.3493 11.5357C74.827 10.9897 73.9962 10.7167 72.8567 10.7167C71.7409 10.7167 70.91 10.9778 70.364 11.5001C69.818 11.9986 69.4619 12.6515 69.2958 13.4586L65.1651 12.0699C65.45 11.1678 65.9011 10.3488 66.5183 9.61284C67.1592 8.85318 68.002 8.24783 69.0465 7.79678C70.1148 7.322 71.4086 7.08461 72.9279 7.08461C75.2543 7.08461 77.0941 7.66622 78.4473 8.82944C79.8004 9.99267 80.477 11.6782 80.477 13.8859V20.4736C80.477 21.1857 80.8093 21.5418 81.474 21.5418H82.8984V25.2452H79.9072C79.0289 25.2452 78.3048 25.0315 77.7351 24.6042C77.1653 24.1769 76.8805 23.6072 76.8805 22.895V22.8594H76.2039C76.109 23.1442 75.8953 23.5241 75.5629 23.9988C75.2306 24.4499 74.7083 24.8535 73.9962 25.2096C73.284 25.5656 72.3107 25.7437 71.0762 25.7437ZM71.8596 22.1116C73.1178 22.1116 74.1386 21.7674 74.922 21.0789C75.7291 20.3667 76.1327 19.429 76.1327 18.2658V17.9097H71.6104C70.7795 17.9097 70.1266 18.0878 69.6519 18.4439C69.1771 18.7999 68.9397 19.2985 68.9397 19.9394C68.9397 20.5804 69.1889 21.1027 69.6875 21.5062C70.186 21.9098 70.91 22.1116 71.8596 22.1116Z" fill="#F9F9F9"/>
<path d="M86.1789 25.2452V0.318909H90.6656V25.2452H86.1789Z" fill="#F9F9F9"/>
<path d="M95.6375 25.2452V7.58313H100.053V9.50601H100.694C101.003 8.91253 101.513 8.40214 102.225 7.97483C102.937 7.52378 103.875 7.29826 105.038 7.29826C106.296 7.29826 107.305 7.54752 108.065 8.04605C108.825 8.52083 109.406 9.14992 109.81 9.93332H110.451C110.854 9.17366 111.424 8.54457 112.16 8.04605C112.896 7.54752 113.94 7.29826 115.294 7.29826C116.386 7.29826 117.371 7.53565 118.249 8.01044C119.151 8.46148 119.863 9.16179 120.386 10.1114C120.932 11.0372 121.205 12.2123 121.205 13.6367V25.2452H116.718V13.9571C116.718 12.9838 116.469 12.2598 115.97 11.785C115.472 11.2865 114.771 11.0372 113.869 11.0372C112.848 11.0372 112.053 11.3695 111.483 12.0342C110.937 12.6752 110.664 13.601 110.664 14.8117V25.2452H106.178V13.9571C106.178 12.9838 105.928 12.2598 105.43 11.785C104.931 11.2865 104.231 11.0372 103.329 11.0372C102.308 11.0372 101.513 11.3695 100.943 12.0342C100.397 12.6752 100.124 13.601 100.124 14.8117V25.2452H95.6375Z" fill="#F9F9F9"/>
<path fill-rule="evenodd" clip-rule="evenodd" d="M20.248 15.4984C21.1063 14.5001 22.6216 13.4933 26.0635 12.9929L25.5207 9.26035C21.3186 9.87136 18.829 11.255 17.2175 13.2436C16.4477 14.1935 15.9463 15.2007 15.5482 16.1162C15.3693 16.5274 15.2253 16.8819 15.0905 17.2138C14.8924 17.7012 14.7142 18.1398 14.4746 18.6379L17.4907 20.7951C17.4959 20.8006 17.4957 20.8008 17.4957 20.8008L17.4946 20.8019L17.4928 20.8036L17.4906 20.8058C17.4898 20.8065 17.4903 20.806 17.4921 20.8043C17.4957 20.8009 17.5043 20.7928 17.5177 20.7804C17.5446 20.7556 17.5904 20.7143 17.6533 20.6607C17.7799 20.5527 17.9711 20.3988 18.2124 20.231C18.7097 19.8853 19.3464 19.5321 20.0182 19.3562C20.6669 19.1863 21.2839 19.1949 21.8777 19.4682C22.481 19.7459 23.2951 20.4052 24.1224 21.9809L27.4619 20.2276C26.3655 18.1392 25.0156 16.7604 23.4548 16.042C22.345 15.5311 21.2467 15.4085 20.248 15.4984Z" fill="#41FFE0"/>
<path fill-rule="evenodd" clip-rule="evenodd" d="M14.7573 15.4788C13.899 14.4805 12.3837 13.4737 8.94184 12.9733L9.48456 9.24075C13.6867 9.85176 16.1763 11.2355 17.7878 13.224C18.5576 14.1739 19.059 15.1811 19.4571 16.0966C19.636 16.5079 19.78 16.8623 19.9149 17.1943C20.1129 17.6816 20.2911 18.1202 20.5307 18.6184L17.5146 20.7755C17.5094 20.781 17.5095 20.7811 17.5096 20.7812L17.5107 20.7823L17.5125 20.7841L17.5147 20.7862C17.5155 20.7869 17.515 20.7864 17.5132 20.7847C17.5096 20.7813 17.501 20.7732 17.4876 20.7608C17.4607 20.736 17.4149 20.6947 17.352 20.6411C17.2254 20.5331 17.0342 20.3792 16.7929 20.2114C16.2957 19.8657 15.6589 19.5125 14.9871 19.3366C14.3384 19.1667 13.7214 19.1753 13.1276 19.4486C12.5243 19.7263 11.7102 20.3856 10.883 21.9613L7.54344 20.208C8.63984 18.1196 9.98974 16.7409 11.5505 16.0224C12.6603 15.5115 13.7586 15.3889 14.7573 15.4788Z" fill="#41FFE0"/>
<path fill-rule="evenodd" clip-rule="evenodd" d="M15.8414 33.9459L15.8414 14.8985L19.236 14.8985L19.236 33.9459L15.8414 33.9459Z" fill="#41FFE0"/>
<path fill-rule="evenodd" clip-rule="evenodd" d="M31.6829 17.5387C31.6829 25.3503 25.3503 31.6829 17.5387 31.6829C16.9643 31.6829 16.3979 31.6486 15.8414 31.5821L15.8414 34.9964C16.4 35.05 16.9661 35.0775 17.5387 35.0775C27.2251 35.0775 35.0775 27.2251 35.0775 17.5387C35.0775 7.85236 27.2251 0 17.5387 0C7.85236 0 0 7.85236 0 17.5387C0 25.728 5.61271 32.6064 13.2012 34.537L13.2012 31.0054C7.51152 29.1742 3.39459 23.8372 3.39459 17.5387C3.39459 9.72714 9.72714 3.39459 17.5387 3.39459C25.3503 3.39459 31.6829 9.72714 31.6829 17.5387Z" fill="#41FFE0"/>
</svg>
