<svg width="170" height="36" viewBox="0 0 639 171" fill="none" xmlns="http://www.w3.org/2000/svg">
<path d="M480.032 132V127.128H488.432V78.072H480.032V73.2H502.376C510.048 73.2 516.012 75.16 520.268 79.08C524.58 82.944 526.736 88.992 526.736 97.224V108.06C526.736 116.292 524.58 122.34 520.268 126.204C516.012 130.068 510.048 132 502.376 132H480.032ZM493.808 127.128H502.376C508.536 127.128 513.24 125.644 516.488 122.676C519.736 119.708 521.36 114.92 521.36 108.312V96.972C521.36 90.308 519.736 85.52 516.488 82.608C513.24 79.64 508.536 78.156 502.376 78.156H493.808V127.128ZM533.067 132L552.303 73.2H561.879L581.115 132H575.487L570.447 116.376H543.735L538.695 132H533.067ZM545.247 111.504H568.935L557.595 76.392H556.587L545.247 111.504ZM610.531 133.176C603.643 133.176 598.155 131.16 594.067 127.128C589.979 123.04 587.935 117.076 587.935 109.236V95.964C587.935 88.124 589.979 82.188 594.067 78.156C598.155 74.068 603.643 72.024 610.531 72.024C617.419 72.024 622.907 74.068 626.995 78.156C631.083 82.188 633.127 88.124 633.127 95.964V109.236C633.127 117.076 631.083 123.04 626.995 127.128C622.907 131.16 617.419 133.176 610.531 133.176ZM610.531 128.304C616.019 128.304 620.247 126.652 623.215 123.348C626.239 120.044 627.751 115.396 627.751 109.404V95.796C627.751 89.804 626.239 85.156 623.215 81.852C620.247 78.548 616.019 76.896 610.531 76.896C605.099 76.896 600.871 78.548 597.847 81.852C594.823 85.156 593.311 89.804 593.311 95.796V109.404C593.311 115.396 594.823 120.044 597.847 123.348C600.871 126.652 605.099 128.304 610.531 128.304Z" fill="#41FFE0"/>
<path d="M480.032 132H479.032V133H480.032V132ZM480.032 127.128V126.128H479.032V127.128H480.032ZM488.432 127.128V128.128H489.432V127.128H488.432ZM488.432 78.072H489.432V77.072H488.432V78.072ZM480.032 78.072H479.032V79.072H480.032V78.072ZM480.032 73.2V72.2H479.032V73.2H480.032ZM520.268 79.08L519.59 79.8156L519.601 79.8247L520.268 79.08ZM520.268 126.204L519.601 125.459L519.596 125.464L520.268 126.204ZM493.808 127.128H492.808V128.128H493.808V127.128ZM516.488 122.676L515.813 121.938L516.488 122.676ZM516.488 82.608L515.813 83.3462L515.82 83.3526L516.488 82.608ZM493.808 78.156V77.156H492.808V78.156H493.808ZM481.032 132V127.128H479.032V132H481.032ZM480.032 128.128H488.432V126.128H480.032V128.128ZM489.432 127.128V78.072H487.432V127.128H489.432ZM488.432 77.072H480.032V79.072H488.432V77.072ZM481.032 78.072V73.2H479.032V78.072H481.032ZM480.032 74.2H502.376V72.2H480.032V74.2ZM502.376 74.2C509.881 74.2 515.573 76.1148 519.591 79.8155L520.945 78.3444C516.451 74.2051 510.215 72.2 502.376 72.2V74.2ZM519.601 79.8247C523.624 83.43 525.736 89.1531 525.736 97.224H527.736C527.736 88.8309 525.536 82.458 520.935 78.3353L519.601 79.8247ZM525.736 97.224V108.06H527.736V97.224H525.736ZM525.736 108.06C525.736 116.131 523.624 121.854 519.601 125.459L520.935 126.949C525.536 122.826 527.736 116.453 527.736 108.06H525.736ZM519.596 125.464C515.578 129.111 509.884 131 502.376 131V133C510.212 133 516.446 131.025 520.94 126.944L519.596 125.464ZM502.376 131H480.032V133H502.376V131ZM493.808 128.128H502.376V126.128H493.808V128.128ZM502.376 128.128C508.686 128.128 513.668 126.608 517.163 123.414L515.813 121.938C512.812 124.68 508.386 126.128 502.376 126.128V128.128ZM517.163 123.414C520.703 120.179 522.36 115.06 522.36 108.312H520.36C520.36 114.78 518.769 119.237 515.813 121.938L517.163 123.414ZM522.36 108.312V96.972H520.36V108.312H522.36ZM522.36 96.972C522.36 90.1735 520.706 85.0462 517.156 81.8634L515.82 83.3526C518.766 85.9938 520.36 90.4425 520.36 96.972H522.36ZM517.163 81.8698C513.668 78.6763 508.686 77.156 502.376 77.156V79.156C508.386 79.156 512.812 80.6037 515.813 83.3462L517.163 81.8698ZM502.376 77.156H493.808V79.156H502.376V77.156ZM492.808 78.156V127.128H494.808V78.156H492.808ZM533.067 132L532.116 131.689L531.688 133H533.067V132ZM552.303 73.2V72.2H551.578L551.352 72.8891L552.303 73.2ZM561.879 73.2L562.829 72.8891L562.604 72.2H561.879V73.2ZM581.115 132V133H582.494L582.065 131.689L581.115 132ZM575.487 132L574.535 132.307L574.759 133H575.487V132ZM570.447 116.376L571.399 116.069L571.175 115.376H570.447V116.376ZM543.735 116.376V115.376H543.007L542.783 116.069L543.735 116.376ZM538.695 132V133H539.423L539.647 132.307L538.695 132ZM545.247 111.504L544.295 111.197L543.873 112.504H545.247V111.504ZM568.935 111.504V112.504H570.309L569.886 111.197L568.935 111.504ZM557.595 76.392L558.546 76.0847L558.323 75.392H557.595V76.392ZM556.587 76.392V75.392H555.859L555.635 76.0847L556.587 76.392ZM534.017 132.311L553.253 73.5109L551.352 72.8891L532.116 131.689L534.017 132.311ZM552.303 74.2H561.879V72.2H552.303V74.2ZM560.928 73.5109L580.164 132.311L582.065 131.689L562.829 72.8891L560.928 73.5109ZM581.115 131H575.487V133H581.115V131ZM576.439 131.693L571.399 116.069L569.495 116.683L574.535 132.307L576.439 131.693ZM570.447 115.376H543.735V117.376H570.447V115.376ZM542.783 116.069L537.743 131.693L539.647 132.307L544.687 116.683L542.783 116.069ZM538.695 131H533.067V133H538.695V131ZM545.247 112.504H568.935V110.504H545.247V112.504ZM569.886 111.197L558.546 76.0847L556.643 76.6993L567.983 111.811L569.886 111.197ZM557.595 75.392H556.587V77.392H557.595V75.392ZM555.635 76.0847L544.295 111.197L546.198 111.811L557.538 76.6993L555.635 76.0847ZM594.067 127.128L593.359 127.835L593.364 127.84L594.067 127.128ZM594.067 78.156L594.769 78.868L594.774 78.8631L594.067 78.156ZM626.995 78.156L626.287 78.8631L626.292 78.868L626.995 78.156ZM626.995 127.128L627.697 127.84L627.702 127.835L626.995 127.128ZM623.215 123.348L622.477 122.673L622.471 122.68L623.215 123.348ZM623.215 81.852L622.471 82.5203L622.477 82.5272L623.215 81.852ZM597.847 81.852L598.584 82.5272L597.847 81.852ZM597.847 123.348L598.584 122.673L597.847 123.348ZM610.531 132.176C603.849 132.176 598.633 130.228 594.769 126.416L593.364 127.84C597.676 132.092 603.436 134.176 610.531 134.176V132.176ZM594.774 126.421C590.932 122.579 588.935 116.908 588.935 109.236H586.935C586.935 117.244 589.025 123.501 593.359 127.835L594.774 126.421ZM588.935 109.236V95.964H586.935V109.236H588.935ZM588.935 95.964C588.935 88.2912 590.933 82.6517 594.769 78.868L593.364 77.444C589.025 81.7243 586.935 87.9568 586.935 95.964H588.935ZM594.774 78.8631C598.639 74.9979 603.853 73.024 610.531 73.024V71.024C603.432 71.024 597.67 73.1381 593.359 77.4489L594.774 78.8631ZM610.531 73.024C617.208 73.024 622.422 74.9979 626.287 78.8631L627.702 77.4489C623.391 73.1381 617.629 71.024 610.531 71.024V73.024ZM626.292 78.868C630.129 82.6517 632.127 88.2912 632.127 95.964H634.127C634.127 87.9568 632.037 81.7243 627.697 77.444L626.292 78.868ZM632.127 95.964V109.236H634.127V95.964H632.127ZM632.127 109.236C632.127 116.908 630.129 122.579 626.287 126.421L627.702 127.835C632.036 123.501 634.127 117.244 634.127 109.236H632.127ZM626.292 126.416C622.428 130.228 617.212 132.176 610.531 132.176V134.176C617.625 134.176 623.385 132.092 627.697 127.84L626.292 126.416ZM610.531 129.304C616.23 129.304 620.757 127.58 623.959 124.016L622.471 122.68C619.736 125.724 615.807 127.304 610.531 127.304V129.304ZM623.952 124.023C627.195 120.48 628.751 115.56 628.751 109.404H626.751C626.751 115.232 625.282 119.608 622.477 122.673L623.952 124.023ZM628.751 109.404V95.796H626.751V109.404H628.751ZM628.751 95.796C628.751 89.64 627.195 84.7201 623.952 81.1768L622.477 82.5272C625.282 85.5919 626.751 89.9679 626.751 95.796H628.751ZM623.959 81.1837C620.757 77.6203 616.23 75.896 610.531 75.896V77.896C615.807 77.896 619.736 79.4757 622.471 82.5203L623.959 81.1837ZM610.531 75.896C604.883 75.896 600.362 77.6226 597.109 81.1768L598.584 82.5272C601.379 79.4734 605.315 77.896 610.531 77.896V75.896ZM597.109 81.1768C593.866 84.7201 592.311 89.64 592.311 95.796H594.311C594.311 89.9679 595.779 85.5919 598.584 82.5272L597.109 81.1768ZM592.311 95.796V109.404H594.311V95.796H592.311ZM592.311 109.404C592.311 115.56 593.866 120.48 597.109 124.023L598.584 122.673C595.779 119.608 594.311 115.232 594.311 109.404H592.311ZM597.109 124.023C600.362 127.577 604.883 129.304 610.531 129.304V127.304C605.315 127.304 601.379 125.727 598.584 122.673L597.109 124.023Z" fill="#41FFE0"/>
<path d="M161.38 158.8V65.536H177.996V73.576H180.408C181.927 70.9853 184.294 68.7073 187.51 66.742C190.726 64.6873 195.327 63.66 201.312 63.66C206.672 63.66 211.63 65 216.186 67.68C220.742 70.2707 224.405 74.112 227.174 79.204C229.943 84.296 231.328 90.46 231.328 97.696V99.84C231.328 107.076 229.943 113.24 227.174 118.332C224.405 123.424 220.742 127.31 216.186 129.99C211.63 132.581 206.672 133.876 201.312 133.876C197.292 133.876 193.897 133.385 191.128 132.402C188.448 131.509 186.259 130.347 184.562 128.918C182.954 127.399 181.659 125.881 180.676 124.362H178.264V158.8H161.38ZM196.22 119.136C201.491 119.136 205.823 117.483 209.218 114.178C212.702 110.783 214.444 105.87 214.444 99.438V98.098C214.444 91.666 212.702 86.7973 209.218 83.492C205.734 80.0973 201.401 78.4 196.22 78.4C191.039 78.4 186.706 80.0973 183.222 83.492C179.738 86.7973 177.996 91.666 177.996 98.098V99.438C177.996 105.87 179.738 110.783 183.222 114.178C186.706 117.483 191.039 119.136 196.22 119.136ZM267.467 133.876C262.733 133.876 258.489 133.072 254.737 131.464C250.985 129.767 247.993 127.355 245.759 124.228C243.615 121.012 242.543 117.126 242.543 112.57C242.543 108.014 243.615 104.217 245.759 101.18C247.993 98.0533 251.03 95.7307 254.871 94.212C258.802 92.604 263.269 91.8 268.271 91.8H286.495V88.048C286.495 84.9213 285.513 82.3753 283.547 80.41C281.582 78.3553 278.455 77.328 274.167 77.328C269.969 77.328 266.842 78.3107 264.787 80.276C262.733 82.152 261.393 84.6087 260.767 87.646L245.223 82.42C246.295 79.0253 247.993 75.9433 250.315 73.174C252.727 70.3153 255.899 68.0373 259.829 66.34C263.849 64.5533 268.718 63.66 274.435 63.66C283.19 63.66 290.113 65.8487 295.205 70.226C300.297 74.6033 302.843 80.946 302.843 89.254V114.044C302.843 116.724 304.094 118.064 306.595 118.064H311.955V132H300.699C297.394 132 294.669 131.196 292.525 129.588C290.381 127.98 289.309 125.836 289.309 123.156V123.022H286.763C286.406 124.094 285.602 125.523 284.351 127.31C283.101 129.007 281.135 130.526 278.455 131.866C275.775 133.206 272.113 133.876 267.467 133.876ZM270.415 120.208C275.15 120.208 278.991 118.913 281.939 116.322C284.977 113.642 286.495 110.113 286.495 105.736V104.396H269.477C266.351 104.396 263.894 105.066 262.107 106.406C260.321 107.746 259.427 109.622 259.427 112.034C259.427 114.446 260.365 116.411 262.241 117.93C264.117 119.449 266.842 120.208 270.415 120.208ZM324.3 132V38.2H341.184V132H324.3ZM359.894 132V65.536H376.51V72.772H378.922C380.083 70.5387 382.004 68.618 384.684 67.01C387.364 65.3127 390.892 64.464 395.27 64.464C400.004 64.464 403.801 65.402 406.66 67.278C409.518 69.0647 411.707 71.432 413.226 74.38H415.638C417.156 71.5213 419.3 69.154 422.07 67.278C424.839 65.402 428.77 64.464 433.862 64.464C437.971 64.464 441.678 65.3573 444.984 67.144C448.378 68.8413 451.058 71.4767 453.024 75.05C455.078 78.534 456.106 82.956 456.106 88.316V132H439.222V89.522C439.222 85.8593 438.284 83.1347 436.408 81.348C434.532 79.472 431.896 78.534 428.502 78.534C424.66 78.534 421.668 79.7847 419.524 82.286C417.469 84.698 416.442 88.182 416.442 92.738V132H399.558V89.522C399.558 85.8593 398.62 83.1347 396.744 81.348C394.868 79.472 392.232 78.534 388.838 78.534C384.996 78.534 382.004 79.7847 379.86 82.286C377.805 84.698 376.778 88.182 376.778 92.738V132H359.894Z" fill="#F9F9F9"/>
<path fill-rule="evenodd" clip-rule="evenodd" d="M72.3871 155.847C98.7715 152.691 119.226 130.234 119.226 103C119.226 73.6042 95.3958 49.7742 66 49.7742C36.6042 49.7742 12.7742 73.6042 12.7742 103C12.7742 126.702 28.2666 146.785 49.6774 153.676L49.6774 166.966C21.1212 159.701 0 133.817 0 103C0 66.5492 29.5492 37 66 37C102.451 37 132 66.5492 132 103C132 139.451 102.451 169 66 169C63.8453 169 61.7147 168.897 59.6129 168.695L59.6129 164.742L59.6129 110.962C58.5887 110.474 57.5061 110.056 56.3982 109.766C53.9569 109.126 51.6354 109.159 49.4008 110.187C47.1305 111.232 44.0667 113.713 40.9539 119.643L28.387 113.045C32.5128 105.186 37.5926 99.9976 43.4659 97.294C47.6422 95.3716 51.7752 94.9101 55.5336 95.2484C52.3035 91.4918 46.6014 87.7031 33.6493 85.8198L35.6916 71.7739C50.6277 73.9457 59.8142 78.7116 65.8975 85.5395C71.9812 78.7511 81.1553 74.0117 96.0374 71.8478L98.0797 85.8937C85.1276 87.777 79.4255 91.5657 76.1954 95.3223C79.9538 94.984 84.0868 95.4454 88.2631 97.3679C94.1364 100.071 99.2162 105.26 103.342 113.119L90.7751 119.716C87.6622 113.787 84.5985 111.306 82.3282 110.261C80.0936 109.232 77.772 109.2 75.3308 109.84C74.3201 110.104 73.3305 110.476 72.3871 110.909L72.3871 155.847Z" fill="#41FFE0"/>
</svg>
