<?xml version="1.0" standalone="no"?>
<!DOCTYPE svg PUBLIC "-//W3C//DTD SVG 20010904//EN"
 "http://www.w3.org/TR/2001/REC-SVG-20010904/DTD/svg10.dtd">
<svg version="1.0" xmlns="http://www.w3.org/2000/svg"
 width="778.000000pt" height="778.000000pt" viewBox="0 0 778.000000 778.000000"
 preserveAspectRatio="xMidYMid meet">
<metadata>
Created by potrace 1.14, written by Peter Selinger 2001-2017
</metadata>
<g transform="translate(0.000000,778.000000) scale(0.100000,-0.100000)"
fill="#000000" stroke="none">
<path d="M3615 7209 c-33 -4 -87 -10 -120 -13 -82 -8 -137 -16 -155 -21 -8 -3
-33 -7 -55 -10 -22 -4 -56 -10 -75 -15 -19 -5 -51 -12 -70 -15 -89 -15 -347
-96 -495 -155 -74 -29 -355 -165 -399 -193 -11 -7 -69 -43 -130 -81 -95 -59
-307 -210 -348 -249 -7 -6 -42 -37 -78 -68 -201 -174 -418 -422 -561 -639 -37
-58 -72 -110 -76 -115 -38 -51 -169 -304 -223 -429 -103 -242 -195 -555 -225
-771 -3 -22 -7 -49 -10 -60 -4 -22 -12 -89 -24 -210 -8 -78 -6 -530 2 -590 2
-16 7 -57 11 -90 4 -33 9 -71 11 -85 9 -42 12 -63 20 -110 25 -162 93 -403
167 -595 220 -568 579 -1052 1068 -1438 47 -37 193 -139 240 -168 30 -18 57
-35 60 -38 3 -4 25 -17 50 -30 25 -13 52 -29 60 -36 88 -69 628 -289 766 -310
l40 -7 0 333 c-1 286 -3 333 -16 337 -63 18 -314 124 -399 170 -150 78 -400
244 -471 312 -9 8 -31 27 -49 42 -93 75 -266 258 -364 383 -58 75 -178 255
-214 320 -291 535 -394 1052 -329 1650 59 543 325 1109 711 1514 84 88 157
158 205 197 19 16 37 31 40 34 16 17 146 114 214 160 313 209 696 363 1036
415 19 3 46 7 60 10 187 36 555 38 770 4 36 -5 79 -12 95 -14 144 -22 396 -93
530 -150 184 -78 275 -124 428 -219 212 -131 429 -315 582 -492 33 -38 62 -71
65 -74 3 -3 21 -25 40 -50 19 -25 37 -47 41 -50 12 -10 147 -216 179 -275 38
-67 110 -212 133 -265 46 -106 55 -130 50 -130 -3 0 -1 -6 5 -12 5 -7 20 -44
32 -83 21 -66 27 -88 51 -175 32 -122 64 -308 76 -455 12 -151 7 -402 -13
-557 -8 -67 -43 -247 -60 -313 -9 -33 -17 -67 -19 -75 -7 -32 -64 -199 -94
-274 -118 -294 -301 -583 -516 -815 -99 -107 -226 -224 -314 -291 -18 -14 -45
-35 -59 -46 -42 -33 -220 -148 -292 -188 -123 -69 -370 -182 -370 -169 0 3 -6
1 -12 -5 -27 -22 -347 -109 -463 -126 -22 -4 -63 -10 -91 -14 l-52 -9 0 1134
0 1134 37 15 c121 52 271 72 376 49 55 -11 169 -74 225 -122 92 -79 205 -225
262 -337 11 -23 22 -43 24 -44 3 -5 166 78 429 218 39 21 98 52 133 70 34 18
64 36 67 40 3 5 -4 25 -15 44 -11 20 -28 51 -39 69 -101 177 -269 381 -411
498 -143 119 -348 226 -486 254 -130 27 -204 36 -298 36 l-110 -1 45 46 c24
25 69 65 99 88 54 41 186 126 196 126 3 0 33 13 67 28 129 59 290 108 477 146
159 32 170 34 198 35 19 1 22 5 18 29 -5 29 -44 288 -50 337 -3 17 -8 53 -12
80 -4 28 -8 57 -9 65 -16 125 -31 200 -41 200 -11 0 -154 -24 -204 -35 -14 -3
-37 -7 -52 -10 -66 -12 -212 -50 -315 -81 -357 -108 -640 -267 -861 -485 l-77
-76 -65 65 c-249 251 -579 426 -1020 540 -63 16 -133 33 -155 38 -22 4 -42 8
-45 9 -3 1 -39 7 -80 14 -41 7 -94 16 -117 21 l-42 7 -6 -36 c-3 -20 -8 -54
-10 -76 -3 -22 -7 -51 -10 -65 -3 -14 -7 -43 -9 -65 -3 -22 -9 -69 -15 -105
-5 -36 -12 -81 -15 -100 -3 -19 -12 -84 -21 -144 -9 -60 -13 -112 -8 -116 4
-3 44 -12 88 -19 291 -46 566 -139 770 -258 48 -29 147 -108 193 -155 l43 -44
-93 1 c-502 7 -941 -292 -1246 -846 l-31 -55 82 -43 c45 -24 118 -62 162 -86
44 -23 150 -79 236 -123 l155 -81 44 76 c97 170 234 320 348 381 150 80 316
80 503 0 l47 -20 0 -1454 c0 -800 2 -1458 6 -1461 3 -4 122 -7 263 -7 295 -1
418 7 593 38 14 3 41 7 60 10 39 6 42 7 150 31 118 26 351 97 415 125 11 5 52
21 90 36 94 36 301 136 405 197 90 53 277 174 296 191 6 6 22 18 34 26 49 32
259 212 335 287 85 83 184 191 265 290 49 59 116 151 174 239 36 54 70 104 74
109 4 6 11 17 15 25 4 8 13 24 20 35 139 228 271 548 345 835 47 180 58 232
78 375 3 28 8 59 10 70 26 139 25 626 -1 818 -3 24 -20 131 -30 192 -28 165
-119 488 -170 600 -7 17 -23 55 -35 85 -28 69 -130 279 -168 345 -65 113 -193
309 -238 364 -7 9 -42 52 -77 96 -121 152 -263 297 -436 448 -84 73 -307 235
-403 292 -348 208 -648 330 -1018 414 -81 19 -110 25 -182 36 -18 3 -44 7 -58
10 -14 2 -50 7 -80 10 -30 4 -68 8 -85 11 -53 8 -538 11 -600 3z"/>
</g>
</svg>
